  <svg
          xmlns="http://www.w3.org/2000/svg"
          width="56"
          height="60"
          viewBox="0 0 56 60"
          fill="none"
        >
          <g filter="url(#filter0_d_25_2874)">
            <mask
              id="mask0_25_2874"
              maskUnits="userSpaceOnUse"
              x="7"
              y="10"
              width="42"
              height="40"
            >
              <path
                d="M48.9348 10.7622H7.22852V49.2377H48.9348V10.7622Z"
                fill="white"
              />
            </mask>
            <g mask="url(#mask0_25_2874)">
              <path
                d="M26.7946 47.6073L27.0071 47.6719C27.7886 47.9084 28.5266 48.1313 29.013 49.1088C29.0253 49.1334 29.0426 49.1552 29.0638 49.1728C29.085 49.1901 29.1097 49.203 29.1361 49.2104C29.1527 49.2148 29.1698 49.2168 29.187 49.2168C29.2248 49.2168 29.2616 49.206 29.2932 49.1851C29.6519 48.9493 29.9897 48.7357 30.3105 48.5328C30.9825 48.1075 31.563 47.7407 32.1181 47.313C34.109 45.8125 35.9256 44.0905 37.5337 42.1785C39.6473 39.6228 41.8327 36.98 43.8901 34.2136C45.1777 32.4818 46.2753 30.5485 47.2031 28.873C48.1313 27.1776 48.6837 25.2992 48.8226 23.3672C49.0743 20.1923 48.3266 17.3306 46.5999 14.8616C44.6784 12.1138 42.1229 10.7755 39.0099 10.8787C35.498 10.9972 32.4094 12.3526 29.8297 14.9075C29.7046 15.0373 29.5888 15.1758 29.4832 15.3221C29.2826 15.5863 29.0923 15.8371 28.8058 15.9364C25.7967 12.977 23.4961 11.8194 20.0543 11.5227C16.5222 11.218 13.6627 12.3649 11.5548 14.9299C10.5087 16.1978 9.59182 17.5689 8.81808 19.0225C7.16879 22.1406 6.82511 25.4571 7.7982 28.8806C8.66602 31.9363 10.1131 34.7927 12.059 37.2913C15.9497 42.3027 20.9076 45.774 26.7946 47.6073Z"
                fill="#FFCF32"
              />
            </g>
          </g>
          <defs>
            <filter
              id="filter0_d_25_2874"
              x="7.2583"
              y="10.8732"
              width="44.6118"
              height="41.3436"
              filterUnits="userSpaceOnUse"
              colorInterpolationFilters="sRGB"
            >
              <feFlood floodOpacity="0" result="BackgroundImageFix" />
              <feColorMatrix
                in="SourceAlpha"
                type="matrix"
                values="0 0 0 0 0 0 0 0 0 0 0 0 0 0 0 0 0 0 127 0"
                result="hardAlpha"
              />
              <feOffset dx="3" dy="3" />
              <feComposite in2="hardAlpha" operator="out" />
              <feColorMatrix
                type="matrix"
                values="0 0 0 0 0 0 0 0 0 0 0 0 0 0 0 0 0 0 1 0"
              />
              <feBlend
                mode="normal"
                in2="BackgroundImageFix"
                result="effect1_dropShadow_25_2874"
              />
              <feBlend
                mode="normal"
                in="SourceGraphic"
                in2="effect1_dropShadow_25_2874"
                result="shape"
              />
            </filter>
          </defs>
        </svg>