 <svg
          width="56"
          height="60"
          viewBox="0 0 56 60"
          fill="none"
          xmlns="http://www.w3.org/2000/svg"
        >
          <mask
            id="mask0_25_2868"
            maskUnits="userSpaceOnUse"
            x="7"
            y="10"
            width="42"
            height="40"
          >
            <path
              d="M48.9348 10.7622H7.22852V49.2377H48.9348V10.7622Z"
              fill="white"
            />
          </mask>
          <g mask="url(#mask0_25_2868)">
            <path
              d="M26.7946 47.6073L27.0071 47.6719C27.7886 47.9084 28.5266 48.1313 29.013 49.1088C29.0253 49.1334 29.0426 49.1552 29.0638 49.1728C29.085 49.1901 29.1097 49.203 29.1361 49.2104C29.1527 49.2148 29.1698 49.2168 29.187 49.2168C29.2248 49.2168 29.2616 49.206 29.2932 49.1851C29.6519 48.9493 29.9897 48.7358 30.3105 48.5328C30.9825 48.1075 31.563 47.7407 32.1181 47.313C34.109 45.8125 35.9256 44.0905 37.5337 42.1785C39.6473 39.6228 41.8327 36.98 43.8901 34.2136C45.1777 32.4818 46.2753 30.5485 47.2031 28.873C48.1313 27.1776 48.6837 25.2992 48.8226 23.3672C49.0743 20.1923 48.3266 17.3306 46.5999 14.8616C44.6784 12.1138 42.1229 10.7755 39.0099 10.8787C35.498 10.9972 32.4094 12.3526 29.8297 14.9075C29.7046 15.0373 29.5888 15.1758 29.4832 15.3221C29.2826 15.5863 29.0923 15.8371 28.8058 15.9364C25.7967 12.977 23.4961 11.8194 20.0543 11.5227C16.5222 11.218 13.6627 12.3649 11.5548 14.9299C10.5087 16.1978 9.59182 17.5689 8.81808 19.0225C7.16879 22.1406 6.82511 25.4571 7.7982 28.8806C8.66602 31.9363 10.1131 34.7927 12.059 37.2913C15.9497 42.3027 20.9076 45.774 26.7946 47.6073ZM12.2249 19.613C12.6769 18.753 13.1804 17.9217 13.7326 17.1236C15.0454 15.1889 16.8956 14.2125 19.242 14.2125C19.5327 14.2125 19.8309 14.2275 20.1368 14.2574C23.2708 14.565 25.785 15.9592 27.6092 18.4009C27.8284 18.6942 28.0671 18.9657 28.2775 19.2049C28.3632 19.3026 28.4437 19.3943 28.5148 19.4783C28.5444 19.5134 28.5853 19.5367 28.6303 19.5443C29.4764 19.6917 29.8183 19.2488 30.0722 18.8234C31.5372 16.37 33.8174 14.9055 37.2486 14.2148C38.0609 14.0732 38.8898 14.0522 39.7083 14.1526C41.008 14.2764 42.1229 14.9214 43.0225 16.0689C44.0476 17.3853 44.6552 18.9834 44.7654 20.6541C44.9469 22.5853 44.5956 24.5296 43.7506 26.2718C43.1139 27.6221 42.3893 28.9283 41.5813 30.1816C40.0811 32.4133 38.4786 34.6321 36.9296 36.7777L36.3909 37.5242C35.2373 39.1238 34.0441 40.7361 32.8906 42.2954C32.4743 42.8578 32.0584 43.4205 31.6426 43.9839C31.4633 44.2268 31.2765 44.465 31.079 44.7173C31.0138 44.8004 30.9476 44.885 30.8803 44.9713C30.327 44.7416 29.7882 44.517 29.2599 44.2976C28.0128 43.7798 26.8238 43.2857 25.6376 42.7844C22.3544 41.4192 19.3805 39.3939 16.8966 36.8319C14.3499 34.1861 12.5847 31.3555 11.5008 28.1783C10.5123 25.2802 10.7491 22.4784 12.2249 19.613Z"
              fill="#FFCF32"
            />
          </g>
        </svg>
        