 <svg
          width="58"
          height="49"
          viewBox="0 0 58 49"
          fill="none"
          xmlns="http://www.w3.org/2000/svg"
        >
          <g clipPath="url(#clip0_16_1587)">
            <path
              d="M48.441 22.1459L48.3261 22.098L48.2304 22.0167C47.8943 21.7294 47.4706 21.5841 46.9692 21.5841H35.6288L35.5938 20.8307C35.5238 19.3469 35.4702 17.8625 35.4173 16.3782C35.3427 14.3135 35.2659 12.179 35.1439 10.0854C35.0699 8.83298 34.1448 8.25516 33.3031 8.13239L33.1858 8.10593C32.95 8.03376 32.7436 8 32.5371 8H22.6319C21.5813 8 21.101 8.60307 20.8832 9.10861L20.8068 9.2847L20.6583 9.40645C20.2333 9.75547 20.021 10.2515 20.0267 10.8807C20.0622 14.7044 20.4547 18.515 20.8344 21.7385L20.9314 22.5593L17.1671 22.8354C15.1398 22.9844 13.1131 23.1338 11.0857 23.2791C10.7421 23.3039 10.4353 23.3968 10.1486 23.5623L10.0584 23.6145L9.95758 23.6412C9.06905 23.8796 8.42432 24.705 8.42432 25.6033V26.1693C8.42432 26.4765 8.50592 26.787 8.66731 27.0928L8.74374 27.2374L8.7553 27.4005C8.97051 30.1597 8.98876 32.9436 8.98927 35.7913C8.98927 37.1538 10.0108 37.5507 10.4505 37.6584L10.5454 37.6877C10.7968 37.7844 11.0473 37.8307 11.3119 37.8307H21.7417L21.7589 38.6034C21.786 39.8023 21.8263 41.0006 21.867 42.1985C21.9313 44.0832 21.9977 46.032 22.0073 47.9568C22.014 49.2941 23.0092 49.7024 23.4372 49.8162L23.5304 49.8476C23.7847 49.95 24.0465 50 24.3301 50H33.9517C34.5066 50 34.9627 49.8234 35.3092 49.4749L35.4651 49.3205C35.8142 48.9735 35.9911 48.5164 35.9911 47.9605C35.9906 45.0026 35.9701 41.5156 35.8212 38.0898L35.7853 37.2646H47.2534C48.5367 37.2646 49.088 36.3421 49.1775 35.4788L49.1961 35.2987L49.2909 35.1443C49.4824 34.8339 49.5759 34.4901 49.5759 34.0937V23.9058C49.5749 22.8406 48.9593 22.3603 48.441 22.1459ZM45.4964 33.1866H33.6696C32.1253 33.1866 31.8129 34.4638 31.7532 34.8555L31.7227 34.9822C31.6425 35.2282 31.6115 35.4768 31.628 35.7425C31.8427 39.1934 31.8884 42.5699 31.9039 45.1257L31.9086 45.9211H26.0587L26.0377 45.152C26.0111 44.209 25.9784 43.2649 25.9453 42.3218C25.8804 40.4635 25.813 38.5424 25.803 36.6449C25.802 36.4673 25.7777 36.2919 25.726 36.092L25.6983 35.983L25.7018 35.8702C25.7214 35.2489 25.5168 34.6703 25.1415 34.2822C24.801 33.9301 24.3377 33.7521 23.7638 33.7521H13.0628L13.0543 32.9701C13.0371 31.262 12.9732 29.5942 12.8652 28.0123L12.8108 27.2268L16.5017 26.956C18.5265 26.8067 20.5506 26.6582 22.5748 26.5127C22.7502 26.4998 22.9253 26.4642 23.1245 26.4003L23.2633 26.356L23.4092 26.3645C24.0428 26.4025 24.6137 26.2011 24.9357 25.8358C25.2062 25.5296 25.3095 25.1036 25.243 24.5703C24.7028 20.2362 24.3138 16.5927 24.173 12.8991L24.1414 12.0783H31.1677L31.2001 12.8358C31.248 13.9724 31.2882 15.1093 31.3283 16.2464C31.4066 18.465 31.4884 20.7596 31.6279 23.0082C31.6367 23.1438 31.6594 23.2823 31.6989 23.4437L31.7225 23.6318C31.7262 24.6423 32.329 25.6628 33.6684 25.6628H45.4962V33.1866H45.4964Z"
              fill="#FFCF32"
            />
          </g>
          <defs>
            <clipPath id="clip0_16_1587">
              <rect width="58" height="49" fill="white" />
            </clipPath>
          </defs>
        </svg>