 <svg
          width="58"
          height="49"
          viewBox="0 0 58 49"
          fill="none"
          xmlns="http://www.w3.org/2000/svg"
        >
          <g clipPath="url(#clip0_16_1589)">
            <g filter="url(#filter0_d_16_1589)">
              <path
                d="M48.441 13.1459L48.3261 13.098L48.2304 13.0167C47.8942 12.7294 47.4706 12.5841 46.9692 12.5841H35.6288L35.5938 11.8307C35.5238 10.3469 35.4702 8.86247 35.4173 7.37817C35.3427 5.3135 35.2659 3.179 35.1439 1.08544C35.0699 -0.167019 34.1448 -0.744844 33.3031 -0.867607L33.1858 -0.894065C32.95 -0.966243 32.7436 -1 32.5371 -1H22.6319C21.5813 -1 21.101 -0.396933 20.8832 0.108614L20.8068 0.284699L20.6583 0.406447C20.2333 0.755474 20.021 1.25149 20.0267 1.88071C20.0622 5.7044 20.4547 9.515 20.8344 12.7385L20.9314 13.5593L17.1671 13.8354C15.1398 13.9844 13.1131 14.1338 11.0857 14.2791C10.7421 14.3039 10.4353 14.3968 10.1486 14.5623L10.0584 14.6145L9.95758 14.6412C9.06905 14.8796 8.42432 15.705 8.42432 16.6033V17.1693C8.42432 17.4765 8.50592 17.787 8.66731 18.0928L8.74374 18.2374L8.7553 18.4005C8.97051 21.1597 8.98876 23.9436 8.98927 26.7913C8.98927 28.1538 10.0108 28.5507 10.4505 28.6584L10.5454 28.6877C10.7968 28.7844 11.0473 28.8307 11.3119 28.8307H21.7417L21.7589 29.6034C21.786 30.8023 21.8263 32.0006 21.867 33.1985C21.9313 35.0832 21.9977 37.032 22.0073 38.9568C22.014 40.2941 23.0092 40.7024 23.4372 40.8162L23.5304 40.8476C23.7847 40.95 24.0465 41 24.3301 41H33.9517C34.5066 41 34.9627 40.8234 35.3092 40.4749L35.4651 40.3205C35.8142 39.9735 35.9911 39.5164 35.9911 38.9605C35.9906 36.0026 35.9701 32.5156 35.8212 29.0898L35.7853 28.2646H47.2534C48.5367 28.2646 49.088 27.3421 49.1775 26.4788L49.1961 26.2987L49.2909 26.1443C49.4824 25.8339 49.5759 25.4901 49.5759 25.0937V14.9058C49.5749 13.8406 48.9593 13.3603 48.441 13.1459Z"
                fill="#FFCF32"
              />
            </g>
          </g>
          <defs>
            <filter
              id="filter0_d_16_1589"
              x="8.42432"
              y="-1"
              width="44.1514"
              height="45"
              filterUnits="userSpaceOnUse"
              colorInterpolationFilters="sRGB"
            >
              <feFlood floodOpacity="0" result="BackgroundImageFix" />
              <feColorMatrix
                in="SourceAlpha"
                type="matrix"
                values="0 0 0 0 0 0 0 0 0 0 0 0 0 0 0 0 0 0 127 0"
                result="hardAlpha"
              />
              <feOffset dx="3" dy="3" />
              <feComposite in2="hardAlpha" operator="out" />
              <feColorMatrix
                type="matrix"
                values="0 0 0 0 0 0 0 0 0 0 0 0 0 0 0 0 0 0 1 0"
              />
              <feBlend
                mode="normal"
                in2="BackgroundImageFix"
                result="effect1_dropShadow_16_1589"
              />
              <feBlend
                mode="normal"
                in="SourceGraphic"
                in2="effect1_dropShadow_16_1589"
                result="shape"
              />
            </filter>
            <clipPath id="clip0_16_1589">
              <rect width="58" height="49" fill="white" />
            </clipPath>
          </defs>
        </svg>