<svg xmlns="http://www.w3.org/2000/svg" width="178" height="168" viewBox="0 0 178 168" fill="none">
<path fill-rule="evenodd" clip-rule="evenodd" d="M60.4976 3.45014C42.7075 12.3823 38.891 39.5756 52.7945 58.3204C57.4639 64.6142 59.2621 65.7447 65.3879 66.2272C77.8774 67.2111 84.7634 58.9437 88.5236 38.4549C91.0715 24.5744 88.4381 13.3753 80.8904 5.99437C74.9402 0.176765 68.594 -0.615224 60.4976 3.45014ZM114.421 7.75244C109.579 9.82199 106.139 13.2336 102.171 19.9027C97.2378 28.1903 96.6874 30.3815 96.9808 40.527C97.8286 69.7997 115.231 83.3516 132.289 68.0223C144.559 56.9978 149.503 31.6986 142.158 17.5384C136.246 6.14271 126.349 2.65166 114.421 7.75244ZM13.7578 60.3479C-0.920847 73.3292 -3.33118 93.3894 8.06104 107.74C11.4982 112.068 15.3638 114.739 19.69 115.775C25.4159 117.146 26.9334 116.683 32.6902 111.807C39.4353 106.094 45.9551 92.5669 46.7349 82.6678C47.3464 74.9056 41.5722 61.9213 35.604 57.6366C27.4265 51.7667 22.814 52.3394 13.7578 60.3479ZM156.323 65.0241C146.539 67.6862 130.925 86.6606 127.742 99.7556C122.927 119.565 142.099 132.917 158.578 121.229C165.388 116.399 174.141 103.048 176.287 94.2227C180.6 76.4765 170.19 61.2514 156.323 65.0241ZM78.1262 91.2303C75.7031 91.9755 62.9628 101.719 49.8144 112.882C40.7852 120.384 35.1242 123.77 27.3612 133.007C24.3227 140.016 24.1687 150.085 29.8001 155.926C37.4495 163.862 44.532 165.124 64.5275 162.107C81.5196 159.545 81.8447 159.561 100.336 164.025C127.568 170.599 139.39 167.652 143.288 153.32C145.573 144.917 141.679 138.811 129.565 131.799C120.027 126.278 114.723 120.294 105.697 104.878C98.6417 92.8252 88.7862 87.9457 78.1262 91.2303Z" fill="black" fill-opacity="0.1"/>
</svg>